<?xml version="1.0" encoding="UTF-8" standalone="no"?>
<svg width="10px" height="14px" viewBox="0 0 10 14" version="1.1" xmlns="http://www.w3.org/2000/svg" xmlns:xlink="http://www.w3.org/1999/xlink">
    <!-- Generator: Sketch 3.7 (28169) - http://www.bohemiancoding.com/sketch -->
    <title></title>
    <desc>Created with Sketch.</desc>
    <defs></defs>
    <g id="Page-1" stroke="none" stroke-width="1" fill="none" fill-rule="evenodd">
        <path d="M5.00000596,7.08593164 C6.95313329,7.08593164 8.54688519,5.49999225 8.54688519,3.54686492 C8.54688519,1.58592509 6.95313329,-1.43051147e-05 5.00000596,-1.43051147e-05 C3.04687863,-1.43051147e-05 1.45312673,1.58592509 1.45312673,3.54686492 C1.45312673,5.49999225 3.04687863,7.08593164 5.00000596,7.08593164 L5.00000596,7.08593164 Z M5.00000596,1.79686284 C5.96094461,1.79686284 6.74219554,2.57811377 6.74219554,3.54686492 C6.74219554,4.50780357 5.96094461,5.2890545 5.00000596,5.2890545 C4.03906731,5.2890545 3.25781638,4.50780357 3.25781638,3.54686492 C3.25781638,2.57811377 4.03906731,1.79686284 5.00000596,1.79686284 L5.00000596,1.79686284 Z M9.08594833,7.51561965 C8.88282309,7.11718168 8.32813493,6.78124378 7.59375905,7.35936947 C7.59375905,7.35936947 6.60157037,8.14843291 5.00000596,8.14843291 C3.39844155,8.14843291 2.40625287,7.35936947 2.40625287,7.35936947 C1.67187699,6.78124378 1.11718883,7.11718168 0.91406359,7.51561965 C0.57031318,8.21874549 0.960938646,8.55468339 1.85156471,9.13280908 C2.60937811,9.61718466 3.65625436,9.79687237 4.32813016,9.86718496 L3.76562949,10.4296856 C2.96875354,11.2187491 2.21094014,11.984375 1.6796895,12.5156256 C1.35937662,12.8359385 1.35937662,13.3515641 1.6796895,13.6640645 L1.77343961,13.7656271 C2.08593999,14.0781275 2.6015656,14.0781275 2.92187848,13.7656271 L5.00781847,11.6718746 C5.80469442,12.4687506 6.57032033,13.2343765 7.09375846,13.7656271 C7.41407134,14.0781275 7.92969695,14.0781275 8.25000983,13.7656271 L8.34375995,13.6640645 C8.65626032,13.3515641 8.65626032,12.8359385 8.34375995,12.5156256 L6.25781996,10.4296856 L5.68750678,9.86718496 C6.36719509,9.79687237 7.39844632,9.60937215 8.14844721,9.13280908 C9.03907328,8.55468339 9.42969874,8.21874549 9.08594833,7.51561965 L9.08594833,7.51561965 Z" id="" fill="#060606"></path>
    </g>
</svg>