<?xml version="1.0" encoding="UTF-8" standalone="no"?>
<svg width="15px" height="9px" viewBox="0 0 15 9" version="1.1" xmlns="http://www.w3.org/2000/svg" xmlns:xlink="http://www.w3.org/1999/xlink">
    <!-- Generator: Sketch 3.7 (28169) - http://www.bohemiancoding.com/sketch -->
    <title></title>
    <desc>Created with Sketch.</desc>
    <defs></defs>
    <g id="Page-1" stroke="none" stroke-width="1" fill="none" fill-rule="evenodd">
        <path d="M14.9765804,1.06249054 C14.9765804,1.06249054 14.8672052,0.749990165 14.1875169,0.835927768 L11.9375142,0.851552786 C11.765639,0.828115258 11.6406389,0.898427842 11.6406389,0.898427842 C11.6406389,0.898427842 11.5078262,0.968740426 11.4453261,1.14061563 C11.0781382,2.08592926 10.6093876,2.89843023 10.6093876,2.89843023 C9.60938646,4.60155726 9.20313597,4.69530737 9.03907328,4.58593224 C8.65626032,4.34374445 8.75782294,3.60155606 8.75782294,3.07030543 C8.75782294,1.41405346 9.00782324,0.726552637 8.26563485,0.546864923 C8.02344706,0.492177358 7.84375935,0.453114811 7.2109461,0.445302302 C6.40625764,0.437489793 5.72656933,0.445302302 5.34375637,0.632802526 C5.08594356,0.757802675 4.89063083,1.03905301 5.00781847,1.05467803 C5.15625615,1.07811556 5.49219405,1.14842814 5.67188176,1.39061593 C5.67188176,1.39061593 5.86719449,1.71092881 5.89844453,2.41405465 C5.98438213,4.35936947 5.58594416,4.60155726 5.58594416,4.60155726 C5.2812563,4.76561995 4.75000566,4.49218213 3.96875473,2.88280521 C3.96875473,2.88280521 3.51562919,2.08592926 3.16406627,1.21092821 C3.1015662,1.04686552 2.97656605,0.960927917 2.97656605,0.960927917 C2.97656605,0.960927917 2.83594088,0.851552786 2.63281564,0.820302749 L0.492188087,0.835927768 C0.164062696,0.835927768 0.0468750559,0.984365445 0.0468750559,0.984365445 C0.0468750559,0.984365445 -0.0703125838,1.10936559 0.0390625466,1.3671784 C1.71093954,5.29687059 3.61719181,7.26562293 3.61719181,7.26562293 C3.61719181,7.26562293 5.35938139,9.0859376 7.33594625,8.96093745 L8.23438482,8.96093745 C8.50782264,8.93749993 8.64844781,8.78906225 8.64844781,8.78906225 C8.64844781,8.78906225 8.77344796,8.64843708 8.76563545,8.39062427 C8.75001043,7.18749784 9.3125111,7.00781013 9.3125111,7.00781013 C9.85938675,6.83593492 10.5625126,8.17187401 11.3125135,8.68749963 C11.3125135,8.68749963 11.8828267,9.07812509 12.3125147,8.99218749 L14.3125171,8.96093745 C15.3672058,8.95312494 14.8672052,8.0781239 14.8672052,8.0781239 C14.8281427,8.00781132 14.5781424,7.46874817 13.3750159,6.35155934 C12.1250145,5.18749546 12.2890771,5.37499568 13.804704,3.35936828 C14.7265801,2.13280431 15.093768,1.38280342 14.9765804,1.06249054 L14.9765804,1.06249054 Z" id="" fill="#060606"></path>
    </g>
</svg>